<svg width="24" height="24" viewBox="0 0 24 24" fill="none" xmlns="http://www.w3.org/2000/svg">
<path d="M8.00001 16H5.43001C3.14001 16 1.99667 14.8567 2.00001 12.57V5.43001C2.00001 3.14001 3.14334 1.99667 5.43001 2.00001H10C12.29 2.00001 13.4333 3.14334 13.43 5.43001" stroke="#292D32" stroke-width="1.5" stroke-linecap="round" stroke-linejoin="round"/>
<path d="M18.5701 22H14.0001C11.7134 22 10.5701 20.8567 10.5701 18.57V11.43C10.5701 9.14333 11.7134 8 14.0001 8H18.5701C20.8601 8 22.0034 9.14333 22.0001 11.43V18.57C22.0001 20.8567 20.8567 22 18.5701 22Z" stroke="#292D32" stroke-width="1.5" stroke-linecap="round" stroke-linejoin="round"/>
<path d="M14.8701 15H18.1301" stroke="#292D32" stroke-width="1.5" stroke-linecap="round" stroke-linejoin="round"/>
<path d="M16.5 16.6301V13.3701" stroke="#292D32" stroke-width="1.5" stroke-linecap="round" stroke-linejoin="round"/>
</svg>
