<svg width="36" height="36" viewBox="0 0 36 36" fill="none" xmlns="http://www.w3.org/2000/svg">
<g clip-path="url(#clip0_839_2280)">
<path d="M27.0947 16.2947H19.7053V8.90521C19.7053 8.45295 19.5256 8.01921 19.2058 7.69941C18.886 7.37961 18.4523 7.19995 18 7.19995C17.5477 7.19995 17.114 7.37961 16.7942 7.69941C16.4744 8.01921 16.2947 8.45295 16.2947 8.90521V16.2947H8.90528C8.45301 16.2947 8.01927 16.4743 7.69947 16.7941C7.37967 17.1139 7.20001 17.5477 7.20001 18C7.20001 18.4522 7.37967 18.886 7.69947 19.2058C8.01927 19.5256 8.45301 19.7052 8.90528 19.7052H16.2947V27.0947C16.2947 27.547 16.4744 27.9807 16.7942 28.3005C17.114 28.6203 17.5477 28.8 18 28.8C18.4523 28.8 18.886 28.6203 19.2058 28.3005C19.5256 27.9807 19.7053 27.547 19.7053 27.0947V19.7052H27.0947C27.547 19.7052 27.9808 19.5256 28.3006 19.2058C28.6203 18.886 28.8 18.4522 28.8 18C28.8 17.5477 28.6203 17.1139 28.3006 16.7941C27.9808 16.4743 27.547 16.2947 27.0947 16.2947Z" fill="white"/>
</g>
<defs>
<clipPath id="clip0_839_2280">
<rect width="36" height="36" fill="white"/>
</clipPath>
</defs>
</svg>
