<svg width="20" height="20" viewBox="0 0 20 20" fill="none" xmlns="http://www.w3.org/2000/svg">
<path d="M10.0083 18.9509C9.47777 18.955 8.96333 18.7687 8.55833 18.4259L7.24166 17.2984C7.05291 17.1639 6.83109 17.0832 6.6 17.0651H5.14166C4.54935 17.0651 3.98129 16.8298 3.56246 16.411C3.14363 15.9921 2.90833 15.4241 2.90833 14.8318V13.4068C2.89065 13.1795 2.81301 12.9609 2.68333 12.7734L1.55 11.4401C1.21846 11.0312 1.03754 10.5207 1.03754 9.99426C1.03754 9.46781 1.21846 8.95736 1.55 8.54842L2.68333 7.21509C2.81301 7.02759 2.89065 6.80905 2.90833 6.58176V5.16509C2.90833 4.57277 3.14363 4.00472 3.56246 3.58589C3.98129 3.16705 4.54935 2.93176 5.14166 2.93176H6.58333C6.81479 2.90921 7.03617 2.82583 7.225 2.69009L8.54166 1.56759C8.95203 1.2321 9.46578 1.04883 9.99583 1.04883C10.5259 1.04883 11.0396 1.2321 11.45 1.56759L12.7667 2.69259C12.9585 2.82726 13.183 2.90785 13.4167 2.92592H14.8333C15.4256 2.92592 15.9937 3.16122 16.4125 3.58005C16.8314 3.99888 17.0667 4.56694 17.0667 5.15926V6.57592C17.0892 6.80738 17.1726 7.02876 17.3083 7.21759L18.4333 8.53426C18.7708 8.94374 18.9553 9.45783 18.9553 9.98842C18.9553 10.519 18.7708 11.0331 18.4333 11.4426L17.3083 12.7593C17.1751 12.9487 17.0945 13.1701 17.075 13.4009V14.8176C17.075 15.4099 16.8397 15.978 16.4209 16.3968C16.002 16.8156 15.434 17.0509 14.8417 17.0509H13.425C13.1913 17.0748 12.9675 17.158 12.775 17.2926L11.4583 18.4176C11.0554 18.7649 10.5403 18.9544 10.0083 18.9509ZM5.14166 4.18426C4.881 4.1847 4.63114 4.28844 4.44683 4.47276C4.26251 4.65707 4.15877 4.90693 4.15833 5.16759V6.58426C4.14132 7.10846 3.95739 7.61354 3.63333 8.02592L2.5 9.35926C2.36206 9.54317 2.2875 9.76686 2.2875 9.99676C2.2875 10.2267 2.36206 10.4503 2.5 10.6343L3.625 11.9593C3.94942 12.3714 4.1334 12.8766 4.15 13.4009V14.8259C4.15044 15.0866 4.25418 15.3364 4.4385 15.5208C4.62281 15.7051 4.87267 15.8088 5.13333 15.8093H6.58333C7.11062 15.8307 7.61784 16.0172 8.03333 16.3426L9.35833 17.4759C9.54219 17.6177 9.76783 17.6946 10 17.6946C10.2322 17.6946 10.4578 17.6177 10.6417 17.4759L11.9583 16.3509C12.3726 16.0233 12.8805 15.8365 13.4083 15.8176H14.825C15.0857 15.8172 15.3355 15.7134 15.5198 15.5291C15.7041 15.3448 15.8079 15.0949 15.8083 14.8343V13.4176C15.8311 12.8906 16.0175 12.3838 16.3417 11.9676L17.475 10.6426C17.6168 10.4587 17.6937 10.2331 17.6937 10.0009C17.6937 9.76875 17.6168 9.54312 17.475 9.35926L16.35 8.04259C16.0224 7.62835 15.8356 7.12037 15.8167 6.59259V5.16676C15.8162 4.9061 15.7125 4.65624 15.5282 4.47192C15.3439 4.28761 15.094 4.18387 14.8333 4.18342H13.4167C12.8865 4.16352 12.3762 3.97689 11.9583 3.65009L10.6333 2.51676C10.4495 2.37499 10.2238 2.2981 9.99166 2.2981C9.75949 2.2981 9.53386 2.37499 9.35 2.51676L8.0375 3.65092C7.61892 3.97648 7.10901 4.16296 6.57916 4.18426H5.14166Z" fill="#292D32"/>
<path d="M12.3417 13.5335L10 8.25846L7.65833 13.5335L6.50833 13.0251L9.425 6.4668H10.575L13.4917 13.0251L12.3417 13.5335Z" fill="#292D32"/>
<path d="M11.4584 11.7168H8.54169C8.37626 11.7157 8.21793 11.6495 8.10095 11.5325C7.98398 11.4156 7.91778 11.2572 7.91669 11.0918C7.91778 10.9264 7.98398 10.768 8.10095 10.6511C8.21793 10.5341 8.37626 10.4679 8.54169 10.4668H11.4584C11.6238 10.4679 11.7821 10.5341 11.8991 10.6511C12.0161 10.768 12.0823 10.9264 12.0834 11.0918C12.0823 11.2572 12.0161 11.4156 11.8991 11.5325C11.7821 11.6495 11.6238 11.7157 11.4584 11.7168Z" fill="#292D32"/>
</svg>
