<svg width="20" height="20" viewBox="0 0 20 20" fill="none" xmlns="http://www.w3.org/2000/svg">
<path d="M14.5417 18.9582C13.5214 18.9389 12.5155 18.715 11.5833 18.2998C10.5259 17.8396 9.52258 17.2639 8.59167 16.5832C7.60014 15.8534 6.66167 15.0542 5.78334 14.1915C4.91809 13.3185 4.11868 12.3826 3.39167 11.3915C2.71768 10.4681 2.14757 9.4732 1.69167 8.42484C1.27952 7.4862 1.05855 6.47484 1.04167 5.44984C1.03905 4.81995 1.15495 4.1952 1.38334 3.60817C1.63048 2.99283 2.012 2.44048 2.5 1.9915C2.77789 1.69678 3.1121 1.46084 3.48284 1.29766C3.85359 1.13447 4.25331 1.04737 4.65834 1.0415C4.98359 1.04207 5.30486 1.11315 5.6 1.24984C5.92442 1.3958 6.20153 1.62961 6.4 1.92484L8.33334 4.64984C8.496 4.86814 8.6304 5.10614 8.73334 5.35817C8.83904 5.59139 8.89576 5.84382 8.9 6.09984C8.89683 6.42406 8.80458 6.74118 8.63334 7.0165C8.48018 7.27682 8.29235 7.51511 8.075 7.72484L7.50834 8.3165C7.51514 8.33657 7.5235 8.35607 7.53334 8.37484C7.73293 8.70303 7.96163 9.01261 8.21667 9.29984C8.625 9.7665 9.00834 10.1915 9.39167 10.5832C9.88334 11.0665 10.2917 11.4498 10.675 11.7665C10.9709 12.0318 11.2951 12.2637 11.6417 12.4582L11.625 12.4998L12.2333 11.8998C12.4526 11.6711 12.7055 11.4772 12.9833 11.3248C13.2268 11.1798 13.5017 11.0957 13.7846 11.0798C14.0675 11.0638 14.3501 11.1164 14.6083 11.2332C14.8549 11.3386 15.0895 11.4699 15.3083 11.6248L18.075 13.5915C18.3703 13.784 18.6022 14.0594 18.7417 14.3832C18.8599 14.6687 18.9221 14.9742 18.925 15.2832C18.9231 15.6896 18.8321 16.0907 18.6583 16.4582C18.4894 16.8241 18.2645 17.1615 17.9917 17.4582C17.5566 17.9568 17.0118 18.3476 16.4 18.5998C15.8096 18.8385 15.1785 18.9602 14.5417 18.9582ZM4.65834 2.2915C4.41383 2.29992 4.1735 2.35736 3.95162 2.46043C3.72974 2.5635 3.53082 2.71009 3.36667 2.8915C3.00916 3.21643 2.72994 3.61816 2.55 4.0665C2.37487 4.50646 2.28713 4.97633 2.29167 5.44984C2.30768 6.306 2.49468 7.15032 2.84167 7.93317C3.25982 8.89488 3.78538 9.80623 4.40834 10.6498C5.09324 11.5888 5.84817 12.4747 6.66667 13.2998C7.49522 14.1204 8.3838 14.8781 9.325 15.5665C10.1742 16.1968 11.0944 16.7254 12.0667 17.1415C12.6576 17.4456 13.3036 17.6281 13.9663 17.6782C14.629 17.7283 15.2951 17.645 15.925 17.4332C16.3642 17.2502 16.755 16.9678 17.0667 16.6082C17.2578 16.4006 17.4153 16.1644 17.5333 15.9082C17.631 15.7083 17.6823 15.489 17.6833 15.2665C17.6833 15.1226 17.652 14.9805 17.5917 14.8498C17.5384 14.7466 17.4576 14.6601 17.3583 14.5998L14.5917 12.6332C14.4489 12.5304 14.2952 12.4438 14.1333 12.3748C14.0533 12.3176 13.9564 12.289 13.8582 12.2935C13.7599 12.2981 13.6661 12.3355 13.5917 12.3998C13.4114 12.4979 13.2481 12.6246 13.1083 12.7748L12.475 13.3998C12.3158 13.5482 12.1189 13.65 11.9059 13.6941C11.6928 13.7382 11.4717 13.7229 11.2667 13.6498L11.0417 13.5498C10.6195 13.3104 10.223 13.0284 9.85834 12.7082C9.45834 12.3665 9.025 11.9665 8.5 11.4498C8.09167 11.0332 7.68334 10.5915 7.25834 10.0998C6.9357 9.73817 6.65088 9.34445 6.40834 8.92484L6.30834 8.67484C6.2673 8.53962 6.24487 8.39944 6.24167 8.25817C6.2396 8.11433 6.26658 7.97155 6.32099 7.83839C6.3754 7.70522 6.45613 7.5844 6.55834 7.48317L7.18334 6.83317C7.32719 6.69376 7.45316 6.537 7.55834 6.3665C7.61513 6.28266 7.64692 6.1844 7.65 6.08317C7.64385 5.99102 7.62127 5.90071 7.58334 5.8165C7.51064 5.66009 7.42123 5.51201 7.31667 5.37484L5.38334 2.6415C5.30532 2.52954 5.1989 2.44037 5.075 2.38317C4.94391 2.32424 4.80206 2.29303 4.65834 2.2915ZM11.625 12.5082L11.4917 13.0748L11.7167 12.4915C11.7012 12.4868 11.6848 12.4859 11.6688 12.4888C11.6529 12.4917 11.6379 12.4983 11.625 12.5082Z" fill="#292D32"/>
</svg>
