<svg width="24" height="24" viewBox="0 0 24 24" fill="none" xmlns="http://www.w3.org/2000/svg">
<path d="M10.581 15.581C10.4825 15.5809 10.385 15.5615 10.2941 15.5237C10.2032 15.486 10.1206 15.4307 10.051 15.361L7.22101 12.53C7.08853 12.3878 7.0164 12.1998 7.01983 12.0055C7.02326 11.8112 7.10197 11.6258 7.23938 11.4884C7.3768 11.3509 7.56218 11.2722 7.75648 11.2688C7.95078 11.2654 8.13883 11.3375 8.28101 11.47L10.581 13.77L15.721 8.63098C15.8632 8.4985 16.0512 8.42638 16.2455 8.4298C16.4398 8.43323 16.6252 8.51194 16.7626 8.64936C16.9 8.78677 16.9788 8.97216 16.9822 9.16646C16.9856 9.36076 16.9135 9.5488 16.781 9.69098L11.111 15.361C11.0415 15.4307 10.9589 15.486 10.8679 15.5237C10.777 15.5615 10.6795 15.5809 10.581 15.581Z" fill="#292D32"/>
</svg>
