<svg width="24" height="25" viewBox="0 0 24 25" fill="none" xmlns="http://www.w3.org/2000/svg">
<path d="M12 23.25C9.87386 23.25 7.79545 22.6195 6.02762 21.4383C4.2598 20.2571 2.88194 18.5782 2.0683 16.6139C1.25466 14.6495 1.04177 12.4881 1.45656 10.4028C1.87135 8.31749 2.89519 6.40202 4.39861 4.89861C5.90202 3.39519 7.81749 2.37135 9.90278 1.95656C11.9881 1.54177 14.1495 1.75466 16.1139 2.5683C18.0782 3.38194 19.7571 4.7598 20.9383 6.52762C22.1195 8.29545 22.75 10.3739 22.75 12.5C22.7476 15.3504 21.6143 18.0833 19.5988 20.0988C17.5833 22.1143 14.8504 23.2476 12 23.25ZM12 3.25C10.1705 3.25 8.38213 3.79251 6.86098 4.80891C5.33983 5.82531 4.15423 7.26997 3.45412 8.96018C2.75401 10.6504 2.57083 12.5103 2.92774 14.3046C3.28465 16.0989 4.16563 17.7471 5.45927 19.0407C6.7529 20.3344 8.40109 21.2154 10.1954 21.5723C11.9897 21.9292 13.8496 21.746 15.5398 21.0459C17.23 20.3458 18.6747 19.1602 19.6911 17.639C20.7075 16.1179 21.25 14.3295 21.25 12.5C21.2471 10.0476 20.2716 7.69656 18.5375 5.96248C16.8034 4.2284 14.4524 3.25292 12 3.25Z" fill="#3BE442"/>
<path d="M10.5811 16.081C10.4826 16.0809 10.3851 16.0615 10.2942 16.0237C10.2032 15.986 10.1206 15.9307 10.0511 15.861L7.22107 13.03C7.08859 12.8878 7.01646 12.6998 7.01989 12.5055C7.02332 12.3112 7.10203 12.1258 7.23945 11.9884C7.37686 11.8509 7.56224 11.7722 7.75654 11.7688C7.95085 11.7654 8.13889 11.8375 8.28107 11.97L10.5811 14.27L15.7211 9.13098C15.8632 8.9985 16.0513 8.92638 16.2456 8.9298C16.4399 8.93323 16.6253 9.01194 16.7627 9.14936C16.9001 9.28677 16.9788 9.47216 16.9822 9.66646C16.9857 9.86076 16.9135 10.0488 16.7811 10.191L11.1111 15.861C11.0415 15.9307 10.9589 15.986 10.868 16.0237C10.777 16.0615 10.6795 16.0809 10.5811 16.081Z" fill="#3BE442"/>
</svg>
