<svg width="24" height="24" viewBox="0 0 24 24" fill="none" xmlns="http://www.w3.org/2000/svg">
<path d="M9.15999 10.87C9.05022 10.86 8.93976 10.86 8.82999 10.87C7.66619 10.8267 6.56585 10.3285 5.7656 9.48239C4.96536 8.63629 4.52914 7.50991 4.55075 6.34552C4.57237 5.18112 5.05011 4.07172 5.88121 3.2559C6.71231 2.44009 7.83039 1.98303 8.99499 1.98303C10.1596 1.98303 11.2777 2.44009 12.1088 3.2559C12.9399 4.07172 13.4176 5.18112 13.4392 6.34552C13.4608 7.50991 13.0246 8.63629 12.2244 9.48239C11.4241 10.3285 10.3238 10.8267 9.15999 10.87Z" stroke="#CCCCCC" stroke-width="1.5" stroke-linecap="round" stroke-linejoin="round"/>
<path d="M16.41 4C17.3383 4 18.2285 4.36875 18.8849 5.02513C19.5413 5.6815 19.91 6.57174 19.91 7.5C19.9107 8.40617 19.5598 9.27726 18.9313 9.93002C18.3028 10.5828 17.4456 10.9663 16.54 11C16.4537 10.99 16.3664 10.99 16.28 11" stroke="#CCCCCC" stroke-width="1.5" stroke-linecap="round" stroke-linejoin="round"/>
<path d="M4.15997 14.561C1.73997 16.181 1.73997 18.821 4.15997 20.431C5.67323 21.3341 7.40268 21.811 9.16497 21.811C10.9273 21.811 12.6567 21.3341 14.17 20.431C16.59 18.811 16.59 16.171 14.17 14.561C12.6551 13.6626 10.9262 13.1885 9.16497 13.1885C7.40369 13.1885 5.67488 13.6626 4.15997 14.561V14.561Z" stroke="#CCCCCC" stroke-width="1.5" stroke-linecap="round" stroke-linejoin="round"/>
<path d="M18.34 20C19.0502 19.8603 19.72 19.563 20.3 19.13C20.6586 18.901 20.9538 18.5854 21.1583 18.2123C21.3627 17.8391 21.4699 17.4205 21.4699 16.995C21.4699 16.5695 21.3627 16.1509 21.1583 15.7777C20.9538 15.4046 20.6586 15.089 20.3 14.86C19.7257 14.4384 19.0675 14.1451 18.37 14" stroke="#CCCCCC" stroke-width="1.5" stroke-linecap="round" stroke-linejoin="round"/>
</svg>
