<svg width="24" height="24" viewBox="0 0 24 24" fill="none" xmlns="http://www.w3.org/2000/svg">
<path d="M20.9705 16.0801C20.9371 16.6976 20.7817 17.3023 20.5133 17.8595C20.2449 18.4166 19.8688 18.915 19.4067 19.326C18.9446 19.7369 18.4057 20.0523 17.821 20.2538C17.2364 20.4553 16.6176 20.539 16.0005 20.5001H7.00046C5.67437 20.5001 4.4026 19.9733 3.46492 19.0356C2.52724 18.0979 2.00046 16.8262 2.00046 15.5001V8.50008C1.9204 7.29371 2.31294 6.10353 3.09499 5.1815C3.87703 4.25947 4.9872 3.67796 6.19046 3.56008C6.45853 3.51947 6.72932 3.49941 7.00046 3.50008H16.0005C16.2514 3.49613 16.5023 3.51286 16.7505 3.55008C17.8648 3.64122 18.9078 4.13509 19.6845 4.93936C20.4611 5.74363 20.9183 6.80324 20.9705 7.92008C20.9759 7.98852 20.967 8.05736 20.9442 8.12213C20.9214 8.1869 20.8853 8.24618 20.8382 8.29612C20.791 8.34607 20.734 8.38558 20.6706 8.4121C20.6073 8.43861 20.5391 8.45155 20.4705 8.45008H18.9205C18.4575 8.44546 17.9983 8.5343 17.5705 8.71128C17.1426 8.88826 16.7549 9.14974 16.4305 9.48008C16.0578 9.84322 15.7703 10.2845 15.5887 10.7721C15.4072 11.2598 15.336 11.7816 15.3805 12.3001C15.4784 13.1994 15.9074 14.0301 16.5838 14.6308C17.2602 15.2315 18.1359 15.5591 19.0405 15.5501H20.4705C20.5391 15.5486 20.6073 15.5615 20.6706 15.5881C20.734 15.6146 20.791 15.6541 20.8382 15.704C20.8853 15.754 20.9214 15.8132 20.9442 15.878C20.967 15.9428 20.9759 16.0116 20.9705 16.0801Z" fill="white"/>
<path d="M22.0001 10.97V13.03C21.9983 13.2966 21.893 13.552 21.7064 13.7423C21.5198 13.9327 21.2665 14.043 21.0001 14.05H19.0401C18.5124 14.0609 17.9995 13.8758 17.6005 13.5303C17.2015 13.1849 16.9448 12.7038 16.8801 12.18C16.8517 11.8807 16.8909 11.5789 16.9947 11.2968C17.0986 11.0147 17.2644 10.7595 17.4801 10.55C17.6674 10.3583 17.8915 10.2064 18.1389 10.1033C18.3863 10.0002 18.652 9.94804 18.9201 9.95H21.0001C21.2665 9.95701 21.5198 10.0673 21.7064 10.2577C21.893 10.448 21.9983 10.7035 22.0001 10.97V10.97Z" fill="white"/>
</svg>
