<svg width="24" height="24" viewBox="0 0 24 24" fill="none" xmlns="http://www.w3.org/2000/svg">
<path d="M17.0297 20.5409L17.0149 20.54H17H7.00061C5.60858 20.5383 4.27405 19.9846 3.28974 19.0003C2.30549 18.0161 1.75177 16.6816 1.75 15.2897V5.71003C1.75 5.13855 1.88101 4.80199 2.01157 4.60531C2.1422 4.40853 2.2963 4.31574 2.40231 4.27157C2.5088 4.2272 2.68233 4.18331 2.91228 4.22914C3.14221 4.27496 3.47198 4.41912 3.87645 4.82358L6.46349 7.41063C6.53175 7.48071 6.61322 7.53661 6.7032 7.5751C6.79543 7.61454 6.89469 7.63488 6.995 7.63488C7.09531 7.63488 7.19457 7.61454 7.2868 7.5751C7.37671 7.53664 7.45812 7.4808 7.52635 7.41079L11.1091 3.83308C11.3483 3.6064 11.6653 3.47998 11.995 3.47998C12.3246 3.47998 12.6416 3.60635 12.8808 3.83296L16.4635 7.41566C16.5318 7.48573 16.6132 7.54162 16.7032 7.5801C16.7954 7.61954 16.8947 7.63988 16.995 7.63988C17.0953 7.63988 17.1946 7.61954 17.2868 7.5801C17.3768 7.54161 17.4582 7.48571 17.5265 7.41562L20.1136 4.82858C20.517 4.42515 20.846 4.28322 21.076 4.23823C21.3064 4.19314 21.4839 4.23634 21.5988 4.28103C21.6971 4.31925 21.8484 4.407 21.9784 4.60281C22.1085 4.79876 22.24 5.13749 22.24 5.71503V15.305V15.3197L22.2409 15.3343C22.2816 16.0291 22.1747 16.7246 21.9271 17.375C21.6796 18.0255 21.297 18.6161 20.8047 19.108C20.3124 19.6 19.7214 19.982 19.0707 20.2289C18.42 20.4759 17.7244 20.5822 17.0297 20.5409ZM3.06124 4.80774L2.51519 4.49038L2.33159 5.09468C2.27011 5.29706 2.24255 5.50818 2.25 5.71951L2.25 15.3L2.25 15.3011C2.25266 16.5598 2.75384 17.7661 3.64387 18.6562C4.53389 19.5462 5.74026 20.0474 6.99894 20.05H7H16.9832C17.6169 20.0914 18.2522 19.9978 18.8471 19.7751C19.4476 19.5504 19.9929 19.1996 20.4462 18.7462C20.8995 18.2929 21.2504 17.7476 21.4751 17.1472C21.6977 16.5523 21.7914 15.9169 21.75 15.2832V5.72009C21.7578 5.51047 21.7298 5.30102 21.6672 5.10077L21.484 4.51502L20.9474 4.81285C20.7662 4.91337 20.6019 5.0415 20.4603 5.19261L17.8808 7.77209C17.6416 7.99871 17.3246 8.12508 16.995 8.12508C16.6654 8.12508 16.3484 7.99871 16.1092 7.7721L12.5265 4.1894C12.4582 4.11934 12.3768 4.06345 12.2868 4.02496C12.1946 3.98552 12.0953 3.96518 11.995 3.96518C11.8947 3.96518 11.7954 3.98552 11.7032 4.02496C11.6132 4.06344 11.5318 4.11933 11.4635 4.1894L7.89083 7.76209C7.65164 7.98871 7.33463 8.11508 7.005 8.11508C6.67537 8.11508 6.35836 7.9887 6.11917 7.76209L3.53648 5.1794C3.39585 5.03433 3.23594 4.90927 3.06124 4.80774Z" fill="#2496FF" stroke="#2496FF"/>
</svg>
