<svg width="26" height="26" viewBox="0 0 26 26" fill="none" xmlns="http://www.w3.org/2000/svg">
<path d="M16.25 24.6459H9.74996C3.86746 24.6459 1.35413 22.1325 1.35413 16.25V9.75002C1.35413 3.86752 3.86746 1.35419 9.74996 1.35419H11.9166C12.1317 1.35561 12.3375 1.44166 12.4896 1.59373C12.6416 1.7458 12.7277 1.95164 12.7291 2.16669C12.7277 2.38174 12.6416 2.58758 12.4896 2.73964C12.3375 2.89171 12.1317 2.97777 11.9166 2.97919H9.74996C4.75579 2.97919 2.97913 4.75585 2.97913 9.75002V16.25C2.97913 21.2442 4.75579 23.0209 9.74996 23.0209H16.25C21.2441 23.0209 23.0208 21.2442 23.0208 16.25V14.0834C23.0208 13.8679 23.1064 13.6612 23.2588 13.5088C23.4111 13.3565 23.6178 13.2709 23.8333 13.2709C24.0488 13.2709 24.2554 13.3565 24.4078 13.5088C24.5602 13.6612 24.6458 13.8679 24.6458 14.0834V16.25C24.6458 22.1325 22.1325 24.6459 16.25 24.6459Z" fill="#787878"/>
<path d="M9.20942 19.1642C8.57283 19.1736 7.95805 18.9324 7.49775 18.4925C7.23254 18.2155 7.03644 17.8798 6.92537 17.5127C6.81431 17.1457 6.79143 16.7576 6.85859 16.38L7.32442 13.1192C7.45231 12.4138 7.77935 11.7597 8.26692 11.2342L16.8036 2.6975C18.9594 0.541669 21.1478 0.541669 23.3036 2.6975C23.8232 3.13621 24.2372 3.68645 24.5148 4.30728C24.7924 4.92811 24.9264 5.60355 24.9069 6.28334C24.7329 7.41035 24.1647 8.4391 23.3036 9.18667L14.7669 17.7233C14.2414 18.2109 13.5873 18.5379 12.8819 18.6658L9.62109 19.1317C9.48556 19.1582 9.34743 19.1691 9.20942 19.1642ZM17.9519 3.84584L9.41525 12.3825C9.1753 12.6585 9.00777 12.9898 8.92775 13.3467L8.46192 16.6075C8.43344 16.7362 8.43526 16.8697 8.46722 16.9975C8.49918 17.1254 8.56041 17.244 8.64609 17.3442C8.74621 17.4298 8.86488 17.4911 8.99272 17.523C9.12057 17.555 9.25409 17.5568 9.38275 17.5283L12.6436 17.0625C13.0013 16.9848 13.3331 16.817 13.6078 16.575L22.1444 8.03834C22.729 7.54745 23.1268 6.87038 23.2711 6.12084C23.2621 5.68057 23.1565 5.24766 22.9618 4.85268C22.7672 4.4577 22.4881 4.11029 22.1444 3.835C20.41 2.10059 19.2183 2.58917 17.9508 3.84584H17.9519Z" fill="#787878"/>
<path d="M21.5042 10.6492C21.4307 10.6498 21.3576 10.6388 21.2875 10.6167C19.8796 10.2158 18.5974 9.46207 17.5623 8.42696C16.5271 7.39184 15.7734 6.10958 15.3725 4.70167C15.3156 4.49341 15.3427 4.27111 15.4481 4.08267C15.5535 3.89422 15.7286 3.7547 15.9359 3.69417C16.0383 3.66538 16.1454 3.65713 16.2511 3.66989C16.3567 3.68265 16.4588 3.71617 16.5514 3.76853C16.644 3.82088 16.7254 3.89104 16.7908 3.97496C16.8562 4.05887 16.9044 4.1549 16.9325 4.2575C17.2571 5.39725 17.8672 6.43528 18.7052 7.27323C19.5431 8.11119 20.5811 8.72132 21.7209 9.04583C21.9289 9.10513 22.105 9.24443 22.2106 9.43326C22.3162 9.62208 22.3426 9.84504 22.2842 10.0533C22.2393 10.2254 22.1381 10.3775 21.9968 10.4855C21.8554 10.5935 21.6821 10.6511 21.5042 10.6492Z" fill="#787878"/>
</svg>
