<svg width="25" height="25" viewBox="0 0 25 25" fill="none" xmlns="http://www.w3.org/2000/svg">
<path d="M9.375 22.9168H15.625C20.8333 22.9168 22.9167 20.8335 22.9167 15.6252V9.37516C22.9167 4.16683 20.8333 2.0835 15.625 2.0835H9.375C4.16667 2.0835 2.08334 4.16683 2.08334 9.37516V15.6252C2.08334 20.8335 4.16667 22.9168 9.375 22.9168Z" stroke="#787878" stroke-width="1.5" stroke-linecap="round" stroke-linejoin="round"/>
<path d="M16.2188 19.271V15.2085" stroke="#787878" stroke-width="1.5" stroke-linecap="round" stroke-linejoin="round"/>
<path d="M16.2188 7.76025V5.729" stroke="#787878" stroke-width="1.5" stroke-linecap="round" stroke-linejoin="round"/>
<path d="M18.9271 10.4686C18.9271 11.0042 18.7682 11.5279 18.4707 11.9733C18.1731 12.4186 17.7501 12.7658 17.2552 12.9708C16.7603 13.1757 16.2158 13.2294 15.6904 13.1249C15.165 13.0204 14.6824 12.7624 14.3037 12.3837C13.9249 12.0049 13.667 11.5223 13.5625 10.997C13.458 10.4716 13.5116 9.92704 13.7166 9.43215C13.9216 8.93727 14.2687 8.51429 14.7141 8.21669C15.1595 7.91909 15.6831 7.76025 16.2188 7.76025C16.9371 7.76025 17.6259 8.0456 18.1338 8.55351C18.6417 9.06142 18.9271 9.75029 18.9271 10.4686Z" stroke="#787878" stroke-width="1.5" stroke-linecap="round" stroke-linejoin="round"/>
<path d="M8.78125 19.271V17.2397" stroke="#787878" stroke-width="1.5" stroke-linecap="round" stroke-linejoin="round"/>
<path d="M8.78125 9.7915V5.729" stroke="#787878" stroke-width="1.5" stroke-linecap="round" stroke-linejoin="round"/>
<path d="M11.4896 14.5311C11.4896 15.0667 11.3307 15.5904 11.0331 16.0358C10.7355 16.4811 10.3126 16.8283 9.81768 17.0333C9.32279 17.2382 8.77824 17.2919 8.25287 17.1874C7.72751 17.0829 7.24493 16.8249 6.86616 16.4462C6.48739 16.0674 6.22945 15.5848 6.12495 15.0595C6.02045 14.5341 6.07408 13.9895 6.27907 13.4947C6.48405 12.9998 6.83119 12.5768 7.27657 12.2792C7.72195 11.9816 8.24558 11.8228 8.78124 11.8228C9.49954 11.8228 10.1884 12.1081 10.6963 12.616C11.2042 13.1239 11.4896 13.8128 11.4896 14.5311Z" stroke="#787878" stroke-width="1.5" stroke-linecap="round" stroke-linejoin="round"/>
</svg>
