<svg width="20" height="20" viewBox="0 0 20 20" fill="none" xmlns="http://www.w3.org/2000/svg">
<path d="M14.1667 18.9585H5.83332C2.15832 18.9585 1.04166 17.8418 1.04166 14.1668V5.8335C1.04166 2.1585 2.15832 1.04184 5.83332 1.04184H7.08332C7.57612 0.987596 8.07411 1.07668 8.51754 1.29839C8.96098 1.52011 9.33104 1.86505 9.58332 2.29184L10.8333 3.9585C11.1083 4.32517 11.15 4.37517 11.6667 4.37517H14.1667C17.8417 4.37517 18.9583 5.49184 18.9583 9.16684V14.1668C18.9583 17.8418 17.8417 18.9585 14.1667 18.9585ZM5.83332 2.29184C2.84999 2.29184 2.29166 2.8585 2.29166 5.8335V14.1668C2.29166 17.1418 2.84999 17.7085 5.83332 17.7085H14.1667C17.15 17.7085 17.7083 17.1418 17.7083 14.1668V9.16684C17.7083 6.19184 17.15 5.62517 14.1667 5.62517H11.6667C11.3056 5.66158 10.9417 5.59477 10.6172 5.4325C10.2926 5.27023 10.0208 5.01916 9.83332 4.7085L8.58332 3.04184C8.44757 2.77182 8.22818 2.55291 7.95786 2.41775C7.68755 2.2826 7.38079 2.23843 7.08332 2.29184H5.83332Z" fill="#292D32"/>
<path d="M16.6667 5.94144C16.5012 5.94035 16.3429 5.87415 16.2259 5.75718C16.1089 5.6402 16.0427 5.48186 16.0417 5.31644V4.16644C16.0417 2.84977 15.4833 2.29144 14.1667 2.29144H6.66666C6.50123 2.29035 6.3429 2.22415 6.22592 2.10718C6.10895 1.9902 6.04275 1.83186 6.04166 1.66644C6.04275 1.50102 6.10895 1.34268 6.22592 1.22571C6.3429 1.10873 6.50123 1.04253 6.66666 1.04144H14.1667C14.5889 0.992177 15.0169 1.03912 15.4185 1.17874C15.82 1.31837 16.1848 1.54706 16.4854 1.84769C16.786 2.14831 17.0147 2.51307 17.1544 2.91464C17.294 3.3162 17.3409 3.74416 17.2917 4.16644V5.31644C17.2906 5.48186 17.2244 5.6402 17.1074 5.75718C16.9904 5.87415 16.8321 5.94035 16.6667 5.94144Z" fill="#292D32"/>
</svg>
