<svg width="20" height="20" viewBox="0 0 20 20" fill="none" xmlns="http://www.w3.org/2000/svg">
<path d="M12.1083 7.89156L7.89166 12.1082C7.61265 11.8318 7.39099 11.503 7.23941 11.1407C7.08784 10.7784 7.00933 10.3897 7.00841 9.99699C7.00748 9.60425 7.08416 9.2152 7.23402 8.85218C7.38389 8.48916 7.604 8.15932 7.88171 7.88161C8.15942 7.6039 8.48926 7.38379 8.85228 7.23392C9.2153 7.08406 9.60435 7.00738 9.99709 7.00831C10.3898 7.00923 10.7785 7.08774 11.1408 7.23931C11.5031 7.39089 11.8319 7.61255 12.1083 7.89156V7.89156Z" stroke="#636363" stroke-width="1.5" stroke-linecap="round" stroke-linejoin="round"/>
<path d="M14.8458 4.8084C13.4603 3.72631 11.7579 3.12905 10 3.1084C7.05833 3.1084 4.31666 4.84173 2.40833 7.84173C2.03949 8.5028 1.84587 9.24723 1.84587 10.0042C1.84587 10.7612 2.03949 11.5057 2.40833 12.1667C3.02822 13.1527 3.78906 14.0427 4.66666 14.8084" stroke="#636363" stroke-width="1.5" stroke-linecap="round" stroke-linejoin="round"/>
<path d="M7.01666 16.2751C7.95995 16.6778 8.97435 16.8875 10 16.8917C12.9417 16.8917 15.6833 15.1584 17.5917 12.1584C17.9605 11.4973 18.1541 10.7529 18.1541 9.9959C18.1541 9.23889 17.9605 8.49447 17.5917 7.8334C17.3203 7.40892 17.0254 6.99995 16.7083 6.6084" stroke="#636363" stroke-width="1.5" stroke-linecap="round" stroke-linejoin="round"/>
<path d="M12.925 10.5833C12.8121 11.1646 12.5281 11.6989 12.1094 12.1176C11.6906 12.5363 11.1563 12.8204 10.575 12.9333" stroke="#292D32" stroke-width="1.5" stroke-linecap="round" stroke-linejoin="round"/>
<path d="M7.89166 12.1084L1.66666 18.3334" stroke="#292D32" stroke-width="1.5" stroke-linecap="round" stroke-linejoin="round"/>
<path d="M18.3333 1.66675L12.1083 7.89175" stroke="#292D32" stroke-width="1.5" stroke-linecap="round" stroke-linejoin="round"/>
</svg>
