<svg width="16" height="16" viewBox="0 0 16 16" fill="none" xmlns="http://www.w3.org/2000/svg">
<path d="M8.00004 14.6666C9.31858 14.6666 10.6075 14.2756 11.7038 13.5431C12.8002 12.8105 13.6547 11.7693 14.1592 10.5511C14.6638 9.33297 14.7958 7.99253 14.5386 6.69932C14.2814 5.40611 13.6464 4.21823 12.7141 3.28588C11.7817 2.35353 10.5938 1.71859 9.30064 1.46135C8.00744 1.20412 6.66699 1.33614 5.44882 1.84072C4.23064 2.34531 3.18945 3.19979 2.45691 4.29612C1.72437 5.39245 1.33337 6.68138 1.33337 7.99992C1.33847 9.76646 2.04249 11.4592 3.29163 12.7083C4.54077 13.9575 6.2335 14.6615 8.00004 14.6666V14.6666Z" stroke="#FFAA6C" stroke-width="1.5" stroke-linecap="round" stroke-linejoin="round"/>
<path d="M8 5.33325V8.66659" stroke="#FFAA6C" stroke-width="1.5" stroke-linecap="round" stroke-linejoin="round"/>
<path d="M7.9967 10.6667H8.0027" stroke="#FFAA6C" stroke-width="2" stroke-linecap="round" stroke-linejoin="round"/>
</svg>
