<svg width="92" height="92" viewBox="0 0 92 92" fill="none" xmlns="http://www.w3.org/2000/svg">
<g clip-path="url(#clip0_1112_3408)">
<path d="M7.30862 42.3731H0C0.177179 39.9404 0.575831 37.5962 1.10737 35.252H7.30862C9.922 35.252 11.871 36.7116 11.871 38.7904C11.871 40.8693 9.9663 42.3731 7.30862 42.3731Z" fill="#F5A76E"/>
<path d="M8.77034 57.4557H1.28455C0.66442 54.9346 0.221473 52.3692 0 49.7153H8.77034C11.5609 49.7153 13.5985 51.3519 13.5985 53.5634C13.5985 55.8634 11.6052 57.4557 8.77034 57.4557Z" fill="#F5A76E"/>
<path d="M45.9335 0C27.1969 0 11.1179 11.1462 3.89792 27.1577H9.70052C16.832 27.1577 21.7487 31.2269 21.7487 36.8442C21.7487 40.6481 19.7997 43.7442 16.4333 45.425C20.8185 47.3269 23.4762 50.9981 23.4762 55.2C23.4762 61.3481 18.0279 65.5942 10.4092 65.5942H4.25228C11.6052 81.2077 27.507 92 45.9335 92C71.3587 92 92 71.3885 92 46C92 20.6115 71.3587 0 45.9335 0ZM52.9764 30.475C53.9509 31.2269 55.1911 31.7135 56.4757 31.7135C57.7602 31.7135 59.0005 31.2712 59.975 30.475L65.7776 34.5442C63.3414 36.8 60.0635 38.1712 56.4757 38.1712C52.8878 38.1712 49.61 36.7558 47.1738 34.5442L52.9764 30.475ZM37.9162 65.5058H28.3929V26.4058H37.9162V65.5058ZM56.4757 65.5942C49.2556 65.5942 43.1873 59.8885 43.1873 53.0769C43.1873 46.2654 49.2556 40.6038 56.4757 40.6038C63.6957 40.6038 69.7641 46.2654 69.7641 53.0769C69.7641 59.8885 63.6957 65.5942 56.4757 65.5942ZM56.4757 47.1058C53.2865 47.1058 50.5845 49.8481 50.5845 53.0769C50.5845 56.3058 53.2865 59.0923 56.4757 59.0923C59.6649 59.0923 62.3669 56.3058 62.3669 53.0769C62.3669 49.8481 59.6649 47.1058 56.4757 47.1058Z" fill="#F5A76E"/>
</g>
<defs>
<clipPath id="clip0_1112_3408">
<rect width="92" height="92" fill="white"/>
</clipPath>
</defs>
</svg>
