<svg width="24" height="24" viewBox="0 0 24 24" fill="none" xmlns="http://www.w3.org/2000/svg">
<path opacity="0.4" d="M20.6301 12.7812L20.6301 12.7802L20.6301 10.9002C20.6301 10.8739 20.6249 10.8479 20.6149 10.8237C20.6048 10.7994 20.5901 10.7773 20.5715 10.7588C20.5529 10.7402 20.5309 10.7255 20.5066 10.7154C20.4824 10.7054 20.4564 10.7002 20.4301 10.7002C20.4038 10.7002 20.3778 10.7054 20.3536 10.7154C20.3293 10.7255 20.3072 10.7402 20.2887 10.7588C20.2701 10.7773 20.2554 10.7994 20.2453 10.8237C20.2353 10.8479 20.2301 10.8739 20.2301 10.9002V12.7802C20.2301 13.8623 20.017 14.9338 19.6029 15.9335C19.1888 16.9332 18.5818 17.8416 17.8167 18.6068C17.0515 19.3719 16.1431 19.9789 15.1434 20.393C14.1437 20.8071 13.0722 21.0202 11.9901 21.0202C10.908 21.0202 9.83651 20.8071 8.83679 20.393C7.83706 19.9789 6.92869 19.3719 6.16354 18.6068C5.39838 17.8416 4.79143 16.9332 4.37733 15.9335C3.96323 14.9338 3.7501 13.8623 3.7501 12.7802V10.9043C3.74885 10.8506 3.72697 10.7994 3.68894 10.7614C3.65114 10.7236 3.60032 10.7017 3.54697 10.7002C3.49506 10.701 3.44545 10.722 3.40868 10.7588C3.37117 10.7963 3.3501 10.8472 3.3501 10.9002V12.7799C3.35293 15.0732 4.2652 17.2718 5.88684 18.8935C7.50853 20.5151 9.70722 21.4274 12.0006 21.4302L20.6301 12.7812ZM20.6301 12.7812C20.6325 13.9161 20.411 15.0403 19.9784 16.0895M20.6301 12.7812L19.9784 16.0895M19.9784 16.0895C19.5457 17.1386 18.9104 18.0922 18.1088 18.8956M19.9784 16.0895L18.1088 18.8956M18.1088 18.8956C17.3072 19.6989 16.3551 20.3363 15.3068 20.7712M18.1088 18.8956L15.3068 20.7712M15.3068 20.7712C14.2588 21.2061 13.1353 21.43 12.0007 21.4302L15.3068 20.7712Z" fill="#969696" stroke="#969696"/>
<path d="M15.5026 7.98293L15.5013 7.98666C15.425 8.2024 15.2834 8.38898 15.0961 8.52043C14.9105 8.65069 14.6892 8.72037 14.4625 8.72001M15.5026 7.98293L14.4599 8.22M15.5026 7.98293C15.5978 7.70671 15.581 7.40419 15.4558 7.14022C15.3306 6.87625 15.1069 6.67185 14.8328 6.57084L14.8328 6.57083L14.8297 6.56972C12.9202 5.88019 10.8296 5.88019 8.92009 6.56972L8.92008 6.56971L8.91703 6.57084C8.64289 6.67185 8.41923 6.87625 8.29402 7.14022C8.1688 7.40419 8.15199 7.70671 8.24719 7.98293L8.2471 7.98296L8.25046 7.99212C8.30105 8.1301 8.37854 8.25666 8.47842 8.36445C8.57831 8.47225 8.6986 8.55914 8.83234 8.62008C8.96606 8.68102 9.11056 8.7148 9.25745 8.71945C9.40301 8.72407 9.54805 8.69999 9.6843 8.64861C11.1003 8.13144 12.6534 8.13074 14.0698 8.64652M15.5026 7.98293L14.2499 8.18M14.4625 8.72001C14.4604 8.72001 14.4584 8.72 14.4563 8.71999L14.4599 8.22M14.4625 8.72001C14.4646 8.71999 14.4668 8.71996 14.4689 8.71992L14.4599 8.22M14.4625 8.72001C14.328 8.72159 14.1946 8.69661 14.0698 8.64652M14.4599 8.22C14.3879 8.2213 14.3164 8.20768 14.2499 8.18M14.0698 8.64652C14.0726 8.64754 14.0754 8.64856 14.0782 8.64958L14.2499 8.18M14.0698 8.64652C14.0658 8.64491 14.0618 8.64327 14.0578 8.6416L14.2499 8.18M11.9999 2.5C13.4842 2.50291 14.9069 3.09383 15.9565 4.14341C17.0062 5.19309 17.5971 6.61594 17.5999 8.10038C17.5999 8.10055 17.5999 8.10073 17.5999 8.1009L17.5999 12.79C17.5999 14.2752 17.0099 15.6996 15.9597 16.7498C14.9095 17.8 13.4851 18.39 11.9999 18.39C10.5147 18.39 9.09031 17.8 8.0401 16.7498C6.9899 15.6996 6.3999 14.2752 6.3999 12.79V8.10046C6.40269 6.61599 6.99363 5.1931 8.04332 4.14341C9.0929 3.09383 10.5156 2.50291 11.9999 2.5ZM13.5739 11.5397L13.581 11.54L13.5882 11.54C13.8325 11.5408 14.0703 11.461 14.2646 11.3128C14.4583 11.1651 14.5979 10.9577 14.662 10.7227C14.7011 10.582 14.712 10.435 14.694 10.29C14.6759 10.1443 14.629 10.0036 14.5559 9.87614C14.4829 9.74872 14.3852 9.63712 14.2685 9.54787C14.1529 9.45939 14.0209 9.39463 13.8802 9.35727C12.564 8.9941 11.174 8.99426 9.85788 9.35774C9.57392 9.43508 9.33221 9.6219 9.18581 9.87725C9.03921 10.1329 9.00019 10.4364 9.07733 10.7209C9.15447 11.0053 9.34146 11.2475 9.59715 11.3941C9.85285 11.5407 10.1563 11.5797 10.4408 11.5026L10.4421 11.5022C11.3767 11.246 12.3631 11.246 13.2977 11.5022L13.31 11.5056L13.3224 11.5083C13.4051 11.5265 13.4893 11.537 13.5739 11.5397ZM8.74577 7.35451C8.81493 7.2087 8.93847 7.0958 9.0899 7.04L9.5099 8.18C9.43444 8.20877 9.35401 8.22226 9.27329 8.2197C9.19257 8.21715 9.11316 8.19858 9.03967 8.16509C8.96618 8.1316 8.90007 8.08385 8.84518 8.02461C8.79029 7.96538 8.7477 7.89583 8.7199 7.82C8.66732 7.66743 8.6766 7.50032 8.74577 7.35451Z" fill="#969696" stroke="#969696"/>
</svg>
