<svg width="24" height="24" viewBox="0 0 24 24" fill="none" xmlns="http://www.w3.org/2000/svg">
<path d="M12 6.43994V9.76994" stroke="#636363" stroke-width="1.5" stroke-linecap="round"/>
<path d="M12.02 2C11.1454 1.99974 10.2792 2.17182 9.47105 2.50643C8.66291 2.84103 7.92861 3.33159 7.31012 3.95008C6.69163 4.56857 6.20107 5.30287 5.86646 6.11102C5.53186 6.91916 5.35977 7.78532 5.36003 8.66V10.76C5.32826 11.5584 5.11267 12.3386 4.73003 13.04L3.46003 15.16C3.27033 15.4405 3.15016 15.7621 3.10946 16.0982C3.06875 16.4343 3.10869 16.7753 3.22597 17.093C3.34325 17.4106 3.5345 17.6957 3.78387 17.9248C4.03325 18.1538 4.33359 18.3201 4.66004 18.41C9.44132 20 14.6088 20 19.39 18.41C19.7055 18.3048 19.9933 18.13 20.2322 17.8986C20.4711 17.6672 20.6549 17.385 20.7701 17.073C20.8853 16.761 20.9289 16.4271 20.8978 16.096C20.8666 15.7649 20.7614 15.445 20.59 15.16L19.32 13.04C18.9387 12.3381 18.7232 11.5581 18.69 10.76V8.66C18.6795 6.89517 17.9731 5.20577 16.7242 3.95877C15.4753 2.71176 13.7849 2.00787 12.02 2V2Z" stroke="#636363" stroke-width="1.5" stroke-linecap="round"/>
<path d="M15.3299 18.8201C15.3268 19.7023 14.9749 20.5474 14.3511 21.1712C13.7273 21.7951 12.8821 22.1469 11.9999 22.1501C11.1178 22.1469 10.2729 21.7946 9.64992 21.1701C9.02541 20.5471 8.67305 19.7022 8.66992 18.8201" stroke="#636363" stroke-width="1.5"/>
</svg>
