<svg width="44" height="44" viewBox="0 0 44 44" fill="none" xmlns="http://www.w3.org/2000/svg">
<path d="M27.5 41.7082H16.5C6.54499 41.7082 2.29166 37.4548 2.29166 27.4998V16.4998C2.29166 6.54484 6.54499 2.2915 16.5 2.2915H27.5C37.455 2.2915 41.7083 6.54484 41.7083 16.4998V27.4998C41.7083 37.4548 37.455 41.7082 27.5 41.7082ZM16.5 5.0415C8.04832 5.0415 5.04166 8.04817 5.04166 16.4998V27.4998C5.04166 35.9515 8.04832 38.9582 16.5 38.9582H27.5C35.9517 38.9582 38.9583 35.9515 38.9583 27.4998V16.4998C38.9583 8.04817 35.9517 5.0415 27.5 5.0415H16.5Z" fill="#B8B8B8"/>
<path d="M16.5 19.7083C15.5029 19.7083 14.5281 19.4126 13.699 18.8587C12.8699 18.3047 12.2237 17.5173 11.8421 16.596C11.4605 15.6748 11.3607 14.6611 11.5552 13.6831C11.7498 12.7051 12.2299 11.8068 12.935 11.1017C13.6401 10.3966 14.5384 9.91641 15.5164 9.72188C16.4944 9.52734 17.5081 9.62718 18.4294 10.0088C19.3506 10.3904 20.138 11.0366 20.692 11.8657C21.246 12.6948 21.5417 13.6695 21.5417 14.6667C21.5422 15.3289 21.4121 15.9847 21.1589 16.5966C20.9057 17.2085 20.5343 17.7645 20.0661 18.2327C19.5978 18.701 19.0418 19.0723 18.4299 19.3255C17.818 19.5787 17.1622 19.7088 16.5 19.7083ZM16.5 12.375C16.0468 12.375 15.6037 12.5094 15.2268 12.7612C14.85 13.013 14.5562 13.3709 14.3828 13.7897C14.2093 14.2084 14.164 14.6692 14.2524 15.1137C14.3408 15.5583 14.5591 15.9666 14.8796 16.2871C15.2001 16.6076 15.6084 16.8259 16.0529 16.9143C16.4975 17.0027 16.9582 16.9573 17.377 16.7839C17.7957 16.6104 18.1537 16.3167 18.4055 15.9398C18.6573 15.563 18.7917 15.1199 18.7917 14.6667C18.7917 14.0589 18.5502 13.476 18.1205 13.0462C17.6907 12.6164 17.1078 12.375 16.5 12.375Z" fill="#B8B8B8"/>
<path d="M4.895 36.1168C4.60034 36.1173 4.31342 36.0226 4.07694 35.8468C3.84046 35.671 3.66707 35.4236 3.58259 35.1413C3.49811 34.859 3.50706 34.557 3.6081 34.2802C3.70913 34.0034 3.89686 33.7666 4.14333 33.6052L13.1817 27.5368C14.1608 26.8902 15.3216 26.5751 16.4933 26.6378C17.6649 26.7005 18.7855 27.1377 19.69 27.8852L20.295 28.4168C20.7738 28.7997 21.3686 29.0083 21.9817 29.0083C22.5947 29.0083 23.1895 28.7997 23.6683 28.4168L31.295 21.8718C32.2756 21.063 33.5072 20.6206 34.7783 20.6206C36.0495 20.6206 37.281 21.063 38.2617 21.8718L41.25 24.4385C41.5148 24.6802 41.675 25.0156 41.6966 25.3734C41.7182 25.7313 41.5996 26.0835 41.3659 26.3554C41.1322 26.6273 40.8018 26.7974 40.4447 26.8297C40.0877 26.862 39.7321 26.754 39.4533 26.5285L36.465 23.9618C35.9826 23.579 35.385 23.3707 34.7692 23.3707C34.1534 23.3707 33.5557 23.579 33.0733 23.9618L25.4467 30.5068C24.466 31.3157 23.2345 31.758 21.9633 31.758C20.6922 31.758 19.4606 31.3157 18.48 30.5068L17.875 29.9752C17.4279 29.6225 16.8816 29.4187 16.3127 29.3924C15.7439 29.3661 15.1811 29.5186 14.7033 29.8285L5.665 35.8968C5.4332 36.039 5.16693 36.1151 4.895 36.1168Z" fill="#B8B8B8"/>
</svg>
