<svg width="24" height="24" viewBox="0 0 24 24" fill="none" xmlns="http://www.w3.org/2000/svg">
<path d="M2.04782 10.4533L2.04568 10.4304L2.04146 10.4078C1.93187 9.82207 1.94693 9.21981 2.08565 8.64027C2.22284 8.06713 2.47793 7.52894 2.83458 7.05996C3.59653 6.22449 4.908 5.75977 6.99798 5.75977H16.998C19.0986 5.75977 20.4106 6.2338 21.1632 7.05971C21.5205 7.5303 21.7759 8.07019 21.9131 8.64503C22.0519 9.22629 22.0667 9.83026 21.9565 10.4176L21.9523 10.4402L21.9502 10.463L21.2007 18.4481C21.2006 18.449 21.2005 18.4498 21.2004 18.4506C21.0953 19.4606 20.8436 20.378 20.1503 21.0544C19.4598 21.7281 18.2395 22.2498 15.998 22.2498H7.99798C5.75759 22.2498 4.53754 21.7281 3.84687 21.0554C3.1536 20.38 2.90161 19.4651 2.79554 18.4603L2.04782 10.4533ZM3.18522 7.40653L3.16703 7.42687L3.15117 7.44907C2.8432 7.88007 2.6304 8.37163 2.5269 8.89114C2.42565 9.39931 2.43125 9.92285 2.54317 10.4285L3.29016 18.4064L3.29011 18.4064L3.29085 18.4133C3.3769 19.213 3.538 20.1077 4.26744 20.768C4.98775 21.42 6.15506 21.7498 7.99798 21.7498H15.998C17.8363 21.7498 19.0034 21.4198 19.7248 20.7667C20.4552 20.1054 20.619 19.2089 20.7051 18.4029L20.7052 18.4029L20.7058 18.3965L21.4528 10.4387C21.5653 9.93151 21.5712 9.40635 21.47 8.89654C21.3666 8.37536 21.1536 7.88212 20.8451 7.44949L20.8291 7.42706L20.8108 7.40653C20.0682 6.5759 18.7113 6.24977 16.998 6.24977H6.99798C5.28471 6.24977 3.92775 6.5759 3.18522 7.40653Z" fill="#FF8D24" stroke="#FF8D24"/>
<path d="M16.1753 6.17533C16.1287 6.22196 16.0658 6.24868 16 6.24997C15.9342 6.24868 15.8713 6.22196 15.8247 6.17533C15.7775 6.1282 15.7507 6.0645 15.75 5.99788V5.2V5.17641C15.75 4.75048 15.75 4.34916 15.708 4.00557C15.6647 3.65149 15.5709 3.29658 15.337 2.9987C15.0971 2.69322 14.7583 2.50802 14.3436 2.39895C13.9375 2.29212 13.4279 2.25 12.8 2.25H11.2C10.5721 2.25 10.0625 2.29212 9.6564 2.39895C9.24175 2.50802 8.90288 2.69322 8.663 2.9987C8.42909 3.29658 8.33527 3.65149 8.29198 4.00557C8.24997 4.34916 8.24999 4.75047 8.25 5.1764L8.25 5.2V5.99791C8.24924 6.06452 8.22245 6.1282 8.17533 6.17533C8.1287 6.22196 8.06585 6.24868 8 6.24997C7.93415 6.24868 7.8713 6.22196 7.82467 6.17533C7.77755 6.1282 7.75076 6.06452 7.75 5.99791V5.2C7.75 4.28516 7.76428 3.45724 8.16425 2.83552C8.52783 2.27035 9.3099 1.75 11.2 1.75H12.8C14.6901 1.75 15.4722 2.27035 15.8357 2.83552C16.2357 3.45724 16.25 4.28516 16.25 5.2V5.99788C16.2493 6.0645 16.2225 6.1282 16.1753 6.17533Z" fill="#FF8D24" stroke="#FF8D24"/>
<path d="M10.75 12.25H10.25V12.75V14.03C10.25 14.0379 10.25 14.0458 10.25 14.0537C10.25 14.2913 10.2499 14.522 10.2731 14.7148C10.2974 14.9169 10.3546 15.1577 10.5321 15.3579C10.7131 15.5621 10.9531 15.6509 11.1826 15.6952C11.4085 15.7387 11.6835 15.75 12 15.75C12.314 15.75 12.5877 15.7407 12.8114 15.7003C13.0381 15.6594 13.2814 15.5753 13.4655 15.3706C13.6462 15.1696 13.703 14.9256 13.727 14.7222C13.75 14.5271 13.75 14.2912 13.75 14.0442C13.75 14.0362 13.75 14.0281 13.75 14.02V12.75V12.25H13.25H10.75ZM12 16.25C10.7311 16.25 10.2404 15.8653 10.0183 15.5084C9.76193 15.0963 9.75 14.5644 9.75 14.03V13C9.75 12.2878 9.84868 12.0509 9.9498 11.9498C10.0509 11.8487 10.2878 11.75 11 11.75H13C13.7122 11.75 13.9491 11.8487 14.0502 11.9498C14.1513 12.0509 14.25 12.2878 14.25 13V14C14.25 14.5449 14.2381 15.085 13.9807 15.5026C13.758 15.8637 13.2676 16.25 12 16.25Z" fill="#FF8D24" stroke="#FF8D24"/>
<path d="M22.09 11.6101L21.7969 11.2051C19.5138 12.8574 16.8532 13.9111 14.0583 14.2701L14.0007 14.2701C14.0006 14.2701 14.0005 14.2701 14.0005 14.2701C13.9403 14.27 13.8822 14.2478 13.8373 14.2077C13.7923 14.1676 13.7636 14.1124 13.7567 14.0525L13.7567 14.0525L13.7562 14.0482C13.7479 13.9818 13.7662 13.9149 13.8071 13.862C13.8479 13.8093 13.9077 13.7749 13.9736 13.7661C16.6937 13.4257 19.2838 12.4037 21.5034 10.795L21.5034 10.795L21.5064 10.7928C21.5326 10.7735 21.5625 10.7596 21.5941 10.752C21.6258 10.7443 21.6586 10.7431 21.6908 10.7483C21.7229 10.7535 21.7537 10.765 21.7814 10.7823C21.809 10.7995 21.8329 10.8221 21.8517 10.8487L21.8517 10.8487L21.8538 10.8516C21.8929 10.9062 21.9089 10.974 21.8981 11.0403C21.8874 11.1066 21.8509 11.1659 21.7965 11.2053L22.09 11.6101ZM22.09 11.6101C19.7306 13.3177 16.9795 14.4044 14.09 14.7701L22.26 10.5601C22.3762 10.7221 22.4236 10.9234 22.3917 11.1202C22.3599 11.317 22.2514 11.4931 22.09 11.6101Z" fill="#FF8D24" stroke="#FF8D24"/>
<path d="M10 14.7799H9.91001C7.14 14.4584 4.49015 13.4664 2.19001 11.8899C2.02969 11.7768 1.92014 11.6053 1.88492 11.4123C1.84969 11.2193 1.8916 11.0202 2.00163 10.8577C2.11167 10.6953 2.28104 10.5825 2.47334 10.5437C2.66565 10.5048 2.86552 10.5429 3.03001 10.6499C5.12919 12.0852 7.54465 12.991 10.07 13.2899C10.2675 13.3127 10.4478 13.4129 10.5715 13.5685C10.6952 13.7241 10.7522 13.9223 10.73 14.1199C10.7143 14.3018 10.6303 14.471 10.4949 14.5935C10.3594 14.716 10.1826 14.7826 10 14.7799Z" fill="#FF8D24"/>
</svg>
