<svg width="20" height="20" viewBox="0 0 20 20" fill="none" xmlns="http://www.w3.org/2000/svg">
<path d="M10.1333 9.05812C10.0418 9.04979 9.9498 9.04979 9.85832 9.05812C8.8885 9.0221 7.97154 8.6069 7.30467 7.90181C6.6378 7.19672 6.27428 6.25808 6.2923 5.28775C6.31031 4.31742 6.70842 3.39292 7.40101 2.71307C8.09359 2.03322 9.02533 1.65234 9.99582 1.65234C10.9663 1.65234 11.8981 2.03322 12.5906 2.71307C13.2832 3.39292 13.6813 4.31742 13.6994 5.28775C13.7174 6.25808 13.3538 7.19672 12.687 7.90181C12.0201 8.6069 11.1032 9.0221 10.1333 9.05812Z" stroke="#292D32" stroke-width="1.5" stroke-linecap="round" stroke-linejoin="round"/>
<path d="M5.96666 12.134C3.95 13.484 3.95 15.684 5.96666 17.0256C7.22771 17.7783 8.66892 18.1757 10.1375 18.1757C11.6061 18.1757 13.0473 17.7783 14.3083 17.0256C16.325 15.6756 16.325 13.4756 14.3083 12.134C13.0459 11.3853 11.6052 10.9902 10.1375 10.9902C8.66976 10.9902 7.22909 11.3853 5.96666 12.134V12.134Z" stroke="#292D32" stroke-width="1.5" stroke-linecap="round" stroke-linejoin="round"/>
</svg>
