<svg width="24" height="24" viewBox="0 0 24 24" fill="none" xmlns="http://www.w3.org/2000/svg">
<path d="M22 21.25H2C1.80149 21.2513 1.61149 21.3307 1.47112 21.4711C1.33075 21.6115 1.25131 21.8015 1.25 22C1.25131 22.1985 1.33075 22.3885 1.47112 22.5289C1.61149 22.6693 1.80149 22.7487 2 22.75H22C22.1985 22.7487 22.3885 22.6693 22.5289 22.5289C22.6693 22.3885 22.7487 22.1985 22.75 22C22.7487 21.8015 22.6693 21.6115 22.5289 21.4711C22.3885 21.3307 22.1985 21.2513 22 21.25V21.25Z" fill="white"/>
<path d="M17 2H7C4 2 3 3.79 3 6V22H21V6C21 3.79 20 2 17 2ZM10 17.25H7C6.80109 17.25 6.61032 17.171 6.46967 17.0303C6.32902 16.8897 6.25 16.6989 6.25 16.5C6.25 16.3011 6.32902 16.1103 6.46967 15.9697C6.61032 15.829 6.80109 15.75 7 15.75H10C10.1989 15.75 10.3897 15.829 10.5303 15.9697C10.671 16.1103 10.75 16.3011 10.75 16.5C10.75 16.6989 10.671 16.8897 10.5303 17.0303C10.3897 17.171 10.1989 17.25 10 17.25ZM10 12.75H7C6.80109 12.75 6.61032 12.671 6.46967 12.5303C6.32902 12.3897 6.25 12.1989 6.25 12C6.25 11.8011 6.32902 11.6103 6.46967 11.4697C6.61032 11.329 6.80109 11.25 7 11.25H10C10.1989 11.25 10.3897 11.329 10.5303 11.4697C10.671 11.6103 10.75 11.8011 10.75 12C10.75 12.1989 10.671 12.3897 10.5303 12.5303C10.3897 12.671 10.1989 12.75 10 12.75ZM10 8.25H7C6.80109 8.25 6.61032 8.17098 6.46967 8.03033C6.32902 7.88968 6.25 7.69891 6.25 7.5C6.25 7.30109 6.32902 7.11032 6.46967 6.96967C6.61032 6.82902 6.80109 6.75 7 6.75H10C10.1989 6.75 10.3897 6.82902 10.5303 6.96967C10.671 7.11032 10.75 7.30109 10.75 7.5C10.75 7.69891 10.671 7.88968 10.5303 8.03033C10.3897 8.17098 10.1989 8.25 10 8.25ZM17 17.25H14C13.8011 17.25 13.6103 17.171 13.4697 17.0303C13.329 16.8897 13.25 16.6989 13.25 16.5C13.25 16.3011 13.329 16.1103 13.4697 15.9697C13.6103 15.829 13.8011 15.75 14 15.75H17C17.1989 15.75 17.3897 15.829 17.5303 15.9697C17.671 16.1103 17.75 16.3011 17.75 16.5C17.75 16.6989 17.671 16.8897 17.5303 17.0303C17.3897 17.171 17.1989 17.25 17 17.25ZM17 12.75H14C13.8011 12.75 13.6103 12.671 13.4697 12.5303C13.329 12.3897 13.25 12.1989 13.25 12C13.25 11.8011 13.329 11.6103 13.4697 11.4697C13.6103 11.329 13.8011 11.25 14 11.25H17C17.1989 11.25 17.3897 11.329 17.5303 11.4697C17.671 11.6103 17.75 11.8011 17.75 12C17.75 12.1989 17.671 12.3897 17.5303 12.5303C17.3897 12.671 17.1989 12.75 17 12.75ZM17 8.25H14C13.8011 8.25 13.6103 8.17098 13.4697 8.03033C13.329 7.88968 13.25 7.69891 13.25 7.5C13.25 7.30109 13.329 7.11032 13.4697 6.96967C13.6103 6.82902 13.8011 6.75 14 6.75H17C17.1989 6.75 17.3897 6.82902 17.5303 6.96967C17.671 7.11032 17.75 7.30109 17.75 7.5C17.75 7.69891 17.671 7.88968 17.5303 8.03033C17.3897 8.17098 17.1989 8.25 17 8.25Z" fill="white"/>
</svg>
