<svg width="18" height="18" viewBox="0 0 18 18" fill="none" xmlns="http://www.w3.org/2000/svg">
<path d="M15.75 8.625C15.75 10.0342 15.3321 11.4117 14.5492 12.5834C13.7663 13.7551 12.6535 14.6684 11.3516 15.2076C10.0497 15.7469 8.6171 15.888 7.23498 15.6131C5.85287 15.3382 4.58332 14.6596 3.58687 13.6631C2.59042 12.6667 1.91183 11.3971 1.63691 10.015C1.36199 8.6329 1.50309 7.2003 2.04236 5.89838C2.58164 4.59646 3.49486 3.48368 4.66657 2.70078C5.83827 1.91787 7.21581 1.5 8.625 1.5C10.5147 1.5 12.3269 2.25067 13.6631 3.58686C14.9993 4.92306 15.75 6.73533 15.75 8.625V8.625Z" stroke="#848484" stroke-width="1.5" stroke-linecap="round" stroke-linejoin="round"/>
<path d="M16.5 16.5L15 15" stroke="#848484" stroke-width="1.5" stroke-linecap="round" stroke-linejoin="round"/>
</svg>
