<svg width="24" height="24" viewBox="0 0 24 24" fill="none" xmlns="http://www.w3.org/2000/svg">
<path d="M11.4029 18.7767L11.4029 18.7767C11.9478 18.8684 12.4991 18.9162 13.0516 18.9198C14.5414 18.9195 15.6197 18.5182 16.398 17.7461C17.1885 16.9619 17.7331 15.7329 18.0161 13.9519C18.0161 13.9517 18.0162 13.9515 18.0162 13.9514L18.7459 9.26291L18.7475 9.25291L18.7476 9.25293C18.8709 8.55421 18.9155 7.84389 18.8806 7.13524L11.4029 18.7767ZM11.4029 18.7767L11.3979 18.7759M11.4029 18.7767L11.3979 18.7759M11.3979 18.7759L6.70791 18.0359L6.69743 18.0343M11.3979 18.7759L6.69743 18.0343M6.69743 18.0343L6.68687 18.0331M6.69743 18.0343L6.68687 18.0331M6.68687 18.0331C5.52949 17.9005 4.41803 17.504 3.43811 16.8742M6.68687 18.0331L3.43811 16.8742M3.43811 16.8742C1.52682 15.542 1.59354 13.2407 1.87406 11.4066C1.87412 11.4062 1.87418 11.4058 1.87424 11.4054L2.61385 6.71791C2.61386 6.71785 2.61387 6.71779 2.61388 6.71773C2.94408 4.62986 3.63194 3.30551 4.65655 2.56044C5.68132 1.81525 7.15434 1.56849 9.24246 1.89376C9.24264 1.89379 9.24283 1.89382 9.24301 1.89385L13.9318 2.63365C13.9319 2.63366 13.9319 2.63368 13.932 2.63369C13.932 2.63369 13.932 2.63369 13.9321 2.6337C15.0186 2.8058 16.2193 3.10194 17.165 3.76642C18.0822 4.41082 18.7933 5.42443 18.8806 7.13442L3.43811 16.8742ZM7.52986 2.25382V2.25381H7.52699C6.24884 2.25381 5.23135 2.58203 4.4811 3.3817C3.75193 4.1589 3.34355 5.31198 3.10334 6.80435L3.1031 6.80588L2.3631 11.4959L2.36296 11.4968C2.12531 13.0208 2.21335 14.1006 2.50209 14.8947C2.79649 15.7043 3.28147 16.167 3.72885 16.4824L3.73939 16.4899L3.75029 16.4967C4.67003 17.0767 5.71094 17.437 6.79228 17.5498L11.4691 18.2877L11.4692 18.2877C13.2493 18.5683 14.653 18.469 15.6842 17.7164C16.7151 16.9641 17.2405 15.6562 17.5209 13.8714L17.521 13.8707L18.2501 9.18644C18.3686 8.52493 18.4112 7.85205 18.377 7.18089V7.17072L18.3763 7.15765C18.3162 6.00968 17.9526 5.08468 17.1622 4.3987C16.3946 3.73246 15.2838 3.34522 13.8443 3.11983L13.844 3.11978L9.16691 2.39024C9.16642 2.39016 9.16593 2.39008 9.16544 2.39C8.62458 2.30249 8.07775 2.25696 7.52986 2.25382Z" fill="#00D6A2" stroke="#00D6A2"/>
<path d="M11.9297 21.7295L11.9297 21.7296C12.8163 22.0494 13.7484 22.2251 14.6907 22.2501C15.3371 22.2605 15.977 22.1202 16.5597 21.8401C17.6875 21.2748 18.5554 20.1217 19.2457 18.0609C19.2457 18.0607 19.2458 18.0604 19.2459 18.0602L20.7454 13.5517L11.9297 21.7295ZM11.9297 21.7295L11.9179 21.7255M11.9297 21.7295L11.9179 21.7255M11.9179 21.7255L7.40792 20.2245L7.40703 20.2243M11.9179 21.7255L7.40703 20.2243M7.40703 20.2243C4.91596 19.4004 3.71964 18.2725 3.35666 16.7341L3.35641 16.7331M7.40703 20.2243L3.35641 16.7331M3.35641 16.7331C3.34491 16.6848 3.34846 16.6342 3.36659 16.588C3.38465 16.542 3.41633 16.5025 3.45739 16.475C3.49984 16.4469 3.54976 16.4321 3.60068 16.4327C3.65177 16.4333 3.70148 16.4493 3.74334 16.4786L3.75275 16.4852M3.35641 16.7331L3.75275 16.4852M3.75275 16.4852L3.76246 16.4913M3.75275 16.4852L3.76246 16.4913M3.76246 16.4913C4.67868 17.0718 5.7167 17.4323 6.7953 17.5449L11.4721 18.2829L11.4722 18.2829M3.76246 16.4913L11.4722 18.2829M11.4722 18.2829C13.2524 18.5634 14.656 18.4642 15.6873 17.7116C16.7182 16.9593 17.2435 15.6514 17.524 13.8666L17.5241 13.8659M11.4722 18.2829L17.5241 13.8659M17.5241 13.8659L18.2532 9.18161C18.372 8.51804 18.4145 7.84304 18.3797 7.16981C18.379 7.12457 18.3896 7.07985 18.4106 7.03971C18.4322 6.99836 18.464 6.96327 18.5031 6.9378L18.5034 6.93764M17.5241 13.8659L18.5034 6.93764M18.5034 6.93764C18.5398 6.91383 18.5821 6.90034 18.6256 6.89863C18.6691 6.89691 18.7123 6.90702 18.7505 6.92788L18.7505 6.9279M18.5034 6.93764L18.7505 6.9279M18.7505 6.9279L18.7546 6.93009M18.7505 6.9279L18.7546 6.93009M18.7546 6.93009C20.0084 7.59907 20.7478 8.43674 21.0673 9.47039M18.7546 6.93009L21.0673 9.47039M21.0673 9.47039C21.392 10.5206 21.3084 11.8529 20.7456 13.5512L21.0673 9.47039ZM5.83479 17.8711L5.46221 18.7822C6.11786 19.1981 6.82557 19.5255 7.56698 19.756L12.0722 21.2544L12.0727 21.2546C13.8313 21.8373 15.2205 21.9368 16.3197 21.3991C17.4265 20.8578 18.1831 19.6622 18.7646 17.9072L20.2645 13.3978L20.2647 13.3969C20.6869 12.1203 20.8342 11.0896 20.7247 10.2352C20.6128 9.36162 20.2364 8.7046 19.6819 8.18508L18.9244 7.47544L18.8416 8.51009C18.8257 8.70941 18.7959 8.91582 18.7614 9.15514C18.7562 9.19136 18.7509 9.22832 18.7455 9.26613L18.0162 13.9519C18.0161 13.952 18.0161 13.9521 18.0161 13.9523C17.6859 16.0399 16.9981 17.3644 15.9732 18.1108C14.9481 18.8573 13.4749 19.1062 11.3869 18.7859C11.3866 18.7859 11.3862 18.7858 11.3859 18.7858L6.70653 18.0474C6.4013 17.9883 6.10777 17.9296 5.83479 17.8711Z" fill="#00D6A2" stroke="#00D6A2"/>
<path d="M8.24101 5.75024H8.24C7.94531 5.75024 7.65723 5.83762 7.4122 6.00135C7.16717 6.16507 6.9762 6.39778 6.86342 6.67004C6.75065 6.9423 6.72114 7.24189 6.77863 7.53092C6.83612 7.81995 6.97803 8.08544 7.18641 8.29382C7.39479 8.50221 7.66029 8.64411 7.94932 8.70161C8.23835 8.7591 8.53794 8.72959 8.8102 8.61682C9.08246 8.50404 9.31517 8.31306 9.47889 8.06804C9.64261 7.82301 9.73 7.53493 9.73 7.24024L9.73 7.23923C9.72921 6.84457 9.57207 6.4663 9.29301 6.18723C9.01394 5.90816 8.63567 5.75103 8.24101 5.75024ZM8.23897 9.22023C7.84574 9.22003 7.46138 9.10333 7.13442 8.88486C6.80716 8.6662 6.5521 8.3554 6.40148 7.99178C6.25086 7.62815 6.21145 7.22803 6.28824 6.84201C6.36502 6.45598 6.55455 6.1014 6.83286 5.82309C7.11117 5.54479 7.46575 5.35526 7.85177 5.27847C8.23779 5.20169 8.63792 5.2411 9.00154 5.39172C9.36517 5.54233 9.67596 5.7974 9.89463 6.12465C10.1131 6.45162 10.2298 6.83598 10.23 7.2292C10.2276 7.75652 10.0171 8.26158 9.64423 8.63447C9.27135 9.00736 8.76628 9.21788 8.23897 9.22023Z" fill="#00D6A2" stroke="#00D6A2"/>
</svg>
