<svg width="20" height="20" viewBox="0 0 20 20" fill="none" xmlns="http://www.w3.org/2000/svg">
<path d="M12.9833 9.99994C12.9833 10.59 12.8084 11.1668 12.4805 11.6574C12.1527 12.148 11.6868 12.5304 11.1417 12.7562C10.5965 12.982 9.99669 13.0411 9.41798 12.9259C8.83927 12.8108 8.30769 12.5267 7.89046 12.1095C7.47324 11.6922 7.1891 11.1607 7.07399 10.582C6.95888 10.0032 7.01796 9.4034 7.24376 8.85826C7.46956 8.31313 7.85194 7.8472 8.34255 7.51939C8.83315 7.19157 9.40995 7.0166 10 7.0166C10.3919 7.01616 10.78 7.09303 11.1422 7.2428C11.5043 7.39257 11.8334 7.61231 12.1105 7.88942C12.3876 8.16654 12.6074 8.49559 12.7571 8.85775C12.9069 9.2199 12.9838 9.60804 12.9833 9.99994V9.99994Z" stroke="#636363" stroke-width="1.5" stroke-linecap="round" stroke-linejoin="round"/>
<path d="M10 16.8918C12.9417 16.8918 15.6833 15.1584 17.5917 12.1584C17.9605 11.4974 18.1541 10.7529 18.1541 9.99593C18.1541 9.23893 17.9605 8.4945 17.5917 7.83343C15.6792 4.83343 12.9417 3.1001 10 3.1001C7.05835 3.1001 4.31668 4.83343 2.40835 7.83343C2.03951 8.4945 1.84589 9.23893 1.84589 9.99593C1.84589 10.7529 2.03951 11.4974 2.40835 12.1584C4.31668 15.1584 7.05835 16.8918 10 16.8918Z" stroke="#636363" stroke-width="1.5" stroke-linecap="round" stroke-linejoin="round"/>
</svg>
