<svg width="20" height="20" viewBox="0 0 20 20" fill="none" xmlns="http://www.w3.org/2000/svg">
<path d="M14.1667 17.7082H5.83332C2.79166 17.7082 1.04166 15.9582 1.04166 12.9165V7.08317C1.04166 4.0415 2.79166 2.2915 5.83332 2.2915H14.1667C17.2083 2.2915 18.9583 4.0415 18.9583 7.08317V12.9165C18.9583 15.9582 17.2083 17.7082 14.1667 17.7082ZM5.83332 3.5415C3.44999 3.5415 2.29166 4.69984 2.29166 7.08317V12.9165C2.29166 15.2998 3.44999 16.4582 5.83332 16.4582H14.1667C16.55 16.4582 17.7083 15.2998 17.7083 12.9165V7.08317C17.7083 4.69984 16.55 3.5415 14.1667 3.5415H5.83332Z" fill="#292D32"/>
<path d="M9.99997 10.7252C9.29394 10.7345 8.60594 10.5022 8.04997 10.0669L5.44164 7.98357C5.31235 7.8808 5.22917 7.73088 5.21042 7.56678C5.19167 7.40269 5.23887 7.23786 5.34164 7.10857C5.44441 6.97928 5.59433 6.89611 5.75843 6.87735C5.92252 6.8586 6.08735 6.9058 6.21664 7.00857L8.82497 9.0919C9.16507 9.33969 9.57501 9.47318 9.99581 9.47318C10.4166 9.47318 10.8265 9.33969 11.1666 9.0919L13.775 7.00857C13.8386 6.95669 13.9119 6.91806 13.9907 6.89497C14.0694 6.87187 14.152 6.86478 14.2336 6.87409C14.3151 6.88341 14.394 6.90896 14.4655 6.94923C14.537 6.9895 14.5997 7.04368 14.65 7.10857C14.7019 7.17217 14.7405 7.24551 14.7636 7.32427C14.7867 7.40302 14.7938 7.48561 14.7844 7.56715C14.7751 7.6487 14.7496 7.72755 14.7093 7.79907C14.669 7.87059 14.6149 7.93332 14.55 7.98357L11.9416 10.0669C11.3894 10.5032 10.7037 10.7357 9.99997 10.7252Z" fill="#292D32"/>
</svg>
