<svg width="24" height="24" viewBox="0 0 24 24" fill="none" xmlns="http://www.w3.org/2000/svg">
<path d="M21 7.75H3C2.80149 7.74869 2.61149 7.66925 2.47112 7.52888C2.33075 7.38851 2.25131 7.19851 2.25 7C2.25131 6.80149 2.33075 6.61149 2.47112 6.47112C2.61149 6.33075 2.80149 6.25131 3 6.25H21C21.1985 6.25131 21.3885 6.33075 21.5289 6.47112C21.6693 6.61149 21.7487 6.80149 21.75 7C21.7487 7.19851 21.6693 7.38851 21.5289 7.52888C21.3885 7.66925 21.1985 7.74869 21 7.75Z" fill="#292D32"/>
<path d="M18 12.75H6C5.80149 12.7487 5.61149 12.6693 5.47112 12.5289C5.33075 12.3885 5.25131 12.1985 5.25 12C5.25131 11.8015 5.33075 11.6115 5.47112 11.4711C5.61149 11.3307 5.80149 11.2513 6 11.25H18C18.1985 11.2513 18.3885 11.3307 18.5289 11.4711C18.6693 11.6115 18.7487 11.8015 18.75 12C18.7487 12.1985 18.6693 12.3885 18.5289 12.5289C18.3885 12.6693 18.1985 12.7487 18 12.75Z" fill="#292D32"/>
<path d="M14 17.75H10C9.80149 17.7487 9.61149 17.6693 9.47112 17.5289C9.33075 17.3885 9.25131 17.1985 9.25 17C9.25131 16.8015 9.33075 16.6115 9.47112 16.4711C9.61149 16.3307 9.80149 16.2513 10 16.25H14C14.1985 16.2513 14.3885 16.3307 14.5289 16.4711C14.6693 16.6115 14.7487 16.8015 14.75 17C14.7487 17.1985 14.6693 17.3885 14.5289 17.5289C14.3885 17.6693 14.1985 17.7487 14 17.75Z" fill="#292D32"/>
</svg>
