<svg width="24" height="24" viewBox="0 0 24 24" fill="none" xmlns="http://www.w3.org/2000/svg">
<path d="M8.29004 6.29C8.19151 6.29013 8.09393 6.27082 8.00287 6.23318C7.91182 6.19553 7.82909 6.14029 7.75942 6.07062C7.68975 6.00095 7.63451 5.91822 7.59686 5.82717C7.55922 5.73611 7.53991 5.63853 7.54004 5.54V2.75C7.54004 2.55109 7.61906 2.36032 7.75971 2.21967C7.90036 2.07902 8.09113 2 8.29004 2C8.48895 2 8.67972 2.07902 8.82037 2.21967C8.96102 2.36032 9.04004 2.55109 9.04004 2.75V5.53C9.04123 5.62929 9.02272 5.72784 8.98557 5.81993C8.94843 5.91202 8.89339 5.99583 8.82364 6.06651C8.75389 6.13719 8.67081 6.19333 8.57922 6.2317C8.48763 6.27006 8.38934 6.28988 8.29004 6.29Z" fill="white"/>
<path d="M15.71 6.29C15.6114 6.29013 15.5138 6.27082 15.4228 6.23318C15.3317 6.19553 15.249 6.14029 15.1793 6.07062C15.1097 6.00095 15.0544 5.91822 15.0168 5.82717C14.9791 5.73611 14.9598 5.63853 14.96 5.54V2.75C14.96 2.55109 15.039 2.36032 15.1796 2.21967C15.3203 2.07902 15.511 2 15.71 2C15.9089 2 16.0996 2.07902 16.2403 2.21967C16.3809 2.36032 16.46 2.55109 16.46 2.75V5.53C16.4612 5.62929 16.4426 5.72784 16.4055 5.81993C16.3683 5.91202 16.3133 5.99583 16.2436 6.06651C16.1738 6.13719 16.0907 6.19333 15.9991 6.2317C15.9076 6.27006 15.8093 6.28988 15.71 6.29Z" fill="white"/>
<path d="M21.4999 15.82C21.5007 15.9002 21.4852 15.9796 21.4542 16.0535C21.4233 16.1275 21.3776 16.1943 21.3199 16.25L15.8099 21.8C15.7499 21.8644 15.6771 21.9154 15.5962 21.9499C15.5152 21.9843 15.4279 22.0014 15.3399 22C15.169 22.0011 15.0045 21.9343 14.8827 21.8143C14.7608 21.6944 14.6915 21.531 14.6899 21.36V17.86C14.7052 17.141 15.0037 16.4571 15.5206 15.9571C16.0374 15.4571 16.7308 15.1814 17.4499 15.19C18.3999 15.18 19.7199 15.18 20.8499 15.18C20.9348 15.1787 21.0191 15.1943 21.0979 15.2258C21.1767 15.2574 21.2485 15.3043 21.309 15.3639C21.3695 15.4235 21.4175 15.4945 21.4503 15.5728C21.4831 15.6511 21.5 15.7351 21.4999 15.82Z" fill="white"/>
<path d="M21.4999 15.82C21.5007 15.9002 21.4852 15.9796 21.4542 16.0535C21.4233 16.1275 21.3776 16.1943 21.3199 16.25L15.8099 21.8C15.7499 21.8644 15.6771 21.9154 15.5962 21.9499C15.5152 21.9843 15.4279 22.0014 15.3399 22C15.169 22.0011 15.0045 21.9343 14.8827 21.8143C14.7608 21.6944 14.6915 21.531 14.6899 21.36V17.86C14.7052 17.141 15.0037 16.4571 15.5206 15.9571C16.0374 15.4571 16.7308 15.1814 17.4499 15.19C18.3999 15.18 19.7199 15.18 20.8499 15.18C20.9348 15.1787 21.0191 15.1943 21.0979 15.2258C21.1767 15.2574 21.2485 15.3043 21.309 15.3639C21.3695 15.4235 21.4175 15.4945 21.4503 15.5728C21.4831 15.6511 21.5 15.7351 21.4999 15.82Z" fill="white"/>
<path d="M19.57 4.5C19.4198 4.38907 19.2418 4.32196 19.0557 4.30611C18.8697 4.29026 18.6829 4.3263 18.5161 4.41022C18.3493 4.49414 18.209 4.62265 18.1108 4.78149C18.0127 4.94033 17.9605 5.12328 17.96 5.31V5.41C17.9724 5.9824 17.7748 6.53953 17.4044 6.97618C17.0341 7.41282 16.5167 7.69876 15.95 7.78C15.6359 7.81322 15.3184 7.78004 15.018 7.68262C14.7176 7.58519 14.441 7.42569 14.2062 7.21448C13.9714 7.00326 13.7836 6.74504 13.6551 6.45656C13.5265 6.16809 13.4601 5.85582 13.46 5.54V4.5C13.46 4.23478 13.3546 3.98043 13.1671 3.79289C12.9796 3.60536 12.7252 3.5 12.46 3.5H11.54C11.2748 3.5 11.0204 3.60536 10.8329 3.79289C10.6454 3.98043 10.54 4.23478 10.54 4.5V5.41C10.5438 5.83493 10.4347 6.25326 10.2239 6.62222C10.013 6.99118 9.70803 7.29754 9.34 7.51C9.30226 7.53702 9.26209 7.56045 9.22 7.58C9.21 7.58 9.21 7.59 9.2 7.59C9.13 7.62 9.06 7.65 8.98 7.68C8.96 7.69 8.94 7.69 8.92 7.7C8.79387 7.74293 8.66284 7.76981 8.53 7.78H8.52C8.36732 7.8 8.21268 7.8 8.06 7.78H8.05C7.91716 7.76981 7.78613 7.74293 7.66 7.7C7.55674 7.6687 7.45637 7.62855 7.36 7.58C6.96636 7.40391 6.63218 7.11752 6.39792 6.75547C6.16365 6.39342 6.03933 5.97123 6.04 5.54V5.31C6.03876 5.1375 5.99358 4.96817 5.90872 4.81798C5.82386 4.6678 5.70213 4.54172 5.55501 4.45165C5.4079 4.36157 5.24025 4.31048 5.0679 4.3032C4.89556 4.29591 4.7242 4.33267 4.57 4.41C4.56 4.42 4.55 4.42 4.54 4.43H4.53C4.46 4.48 4.4 4.53 4.33 4.58C4.22 4.67 4.11 4.76 4.01 4.86C3.94 4.93 3.87 5 3.81 5.07C3.73144 5.14859 3.65796 5.23209 3.59 5.32C3.53458 5.37886 3.48439 5.44243 3.44 5.51C3.39329 5.57096 3.34989 5.63438 3.31 5.7C3.29765 5.7114 3.28748 5.72495 3.28 5.74C3.19041 5.8743 3.11022 6.01463 3.04 6.16C3.02 6.18 3.01 6.19 3.01 6.21C2.94651 6.32869 2.89299 6.45245 2.85 6.58C2.82582 6.62476 2.80573 6.67162 2.79 6.72C2.77 6.76 2.76 6.81 2.74 6.85C2.71 6.95 2.68 7.06 2.65 7.17C2.60946 7.31431 2.57938 7.46136 2.56 7.61C2.54 7.72 2.53 7.83 2.52 7.95C2.51 8.09 2.5 8.23 2.5 8.37V17.13C2.5 18.4216 3.01309 19.6603 3.92639 20.5736C4.83969 21.4869 6.0784 22 7.37 22H12.19C12.4552 22 12.7096 21.8946 12.8971 21.7071C13.0846 21.5196 13.19 21.2652 13.19 21V17.86C13.2029 16.7424 13.6588 15.6756 14.4575 14.8938C15.2561 14.112 16.3324 13.6791 17.45 13.69C17.98 13.68 19.27 13.68 20.5 13.68C20.7652 13.68 21.0196 13.5746 21.2071 13.3871C21.3946 13.1996 21.5 12.9452 21.5 12.68V8.37C21.5005 7.61944 21.3263 6.87907 20.9914 6.2074C20.6564 5.53574 20.1698 4.9512 19.57 4.5ZM11.13 15.91C11.084 16.0592 10.991 16.1895 10.8648 16.2814C10.7386 16.3733 10.5861 16.422 10.43 16.42H6.79C6.74569 16.424 6.70107 16.4171 6.66 16.4C6.48557 16.3745 6.32641 16.2863 6.2123 16.152C6.09818 16.0176 6.03693 15.8463 6.04 15.67C6.03881 15.5707 6.05732 15.4722 6.09447 15.3801C6.13161 15.288 6.18665 15.2042 6.2564 15.1335C6.32615 15.0628 6.40923 15.0067 6.50082 14.9683C6.59241 14.9299 6.6907 14.9101 6.79 14.91H10.43C10.63 14.9121 10.821 14.9932 10.9615 15.1355C11.102 15.2779 11.1805 15.47 11.18 15.67C11.1838 15.7529 11.1666 15.8355 11.13 15.91ZM13.91 12.2C13.864 12.3492 13.771 12.4795 13.6448 12.5714C13.5186 12.6633 13.3661 12.712 13.21 12.71H6.79C6.74569 12.714 6.70107 12.7071 6.66 12.69C6.48557 12.6645 6.32641 12.5763 6.2123 12.442C6.09818 12.3076 6.03693 12.1363 6.04 11.96C6.03881 11.8607 6.05732 11.7622 6.09447 11.6701C6.13161 11.578 6.18665 11.4942 6.2564 11.4235C6.32615 11.3528 6.40923 11.2967 6.50082 11.2583C6.59241 11.2199 6.6907 11.2001 6.79 11.2H13.21C13.3093 11.2001 13.4076 11.2199 13.4992 11.2583C13.5908 11.2967 13.6738 11.3528 13.7436 11.4235C13.8133 11.4942 13.8684 11.578 13.9055 11.6701C13.9427 11.7622 13.9612 11.8607 13.96 11.96C13.9638 12.0429 13.9466 12.1255 13.91 12.2Z" fill="white"/>
</svg>
