<svg width="42" height="42" viewBox="0 0 42 42" fill="none" xmlns="http://www.w3.org/2000/svg">
<path d="M19.25 14C19.25 14.6922 19.0447 15.3689 18.6601 15.9445C18.2756 16.5201 17.7289 16.9687 17.0894 17.2336C16.4499 17.4985 15.7461 17.5678 15.0672 17.4327C14.3883 17.2977 13.7646 16.9644 13.2751 16.4749C12.7856 15.9854 12.4523 15.3617 12.3173 14.6828C12.1822 14.0039 12.2515 13.3001 12.5164 12.6606C12.7813 12.0211 13.2299 11.4744 13.8055 11.0899C14.3811 10.7053 15.0578 10.5 15.75 10.5C16.6783 10.5 17.5685 10.8687 18.2249 11.5251C18.8813 12.1815 19.25 13.0717 19.25 14Z" stroke="#292D32" stroke-width="1.5" stroke-linecap="round" stroke-linejoin="round"/>
<path d="M22.75 3.5H15.75C7 3.5 3.5 7 3.5 15.75V26.25C3.5 35 7 38.5 15.75 38.5H26.25C35 38.5 38.5 35 38.5 26.25V17.5" stroke="#292D32" stroke-width="1.5" stroke-linecap="round" stroke-linejoin="round"/>
<path d="M31.5 3.5V14L35 10.5" stroke="#292D32" stroke-width="1.5" stroke-linecap="round" stroke-linejoin="round"/>
<path d="M31.5 14L28 10.5" stroke="#292D32" stroke-width="1.5" stroke-linecap="round" stroke-linejoin="round"/>
<path d="M4.67249 33.1626L13.3 27.3701C13.9977 26.9189 14.82 26.6997 15.6497 26.7437C16.4794 26.7877 17.2739 27.0927 17.92 27.6151L18.4975 28.1226C19.194 28.6915 20.0657 29.0022 20.965 29.0022C21.8643 29.0022 22.736 28.6915 23.4325 28.1226L30.7125 21.8698C31.409 21.301 32.2807 20.9902 33.18 20.9902C34.0793 20.9902 34.951 21.301 35.6475 21.8698L38.5 24.3198" stroke="#292D32" stroke-width="1.5" stroke-linecap="round" stroke-linejoin="round"/>
</svg>
