<svg width="24" height="24" viewBox="0 0 24 24" fill="none" xmlns="http://www.w3.org/2000/svg">
<g clip-path="url(#clip0_839_2309)">
<path d="M13 9H7" stroke="#CCCCCC" stroke-width="1.5" stroke-linecap="round" stroke-linejoin="round"/>
<path d="M22 10.97V13.03C21.9983 13.2966 21.893 13.552 21.7064 13.7423C21.5198 13.9327 21.2665 14.043 21 14.05H19.04C18.5124 14.0609 17.9994 13.8758 17.6004 13.5303C17.2014 13.1849 16.9447 12.7038 16.88 12.18C16.8516 11.8807 16.8908 11.5789 16.9946 11.2968C17.0985 11.0147 17.2644 10.7595 17.48 10.55C17.6673 10.3583 17.8914 10.2064 18.1389 10.1033C18.3863 10.0002 18.652 9.94804 18.92 9.95H21C21.2665 9.95701 21.5198 10.0673 21.7064 10.2577C21.893 10.448 21.9983 10.7035 22 10.97V10.97Z" stroke="#CCCCCC" stroke-width="1.5" stroke-linecap="round" stroke-linejoin="round"/>
<path d="M17.48 10.5501C17.2644 10.7595 17.0985 11.0147 16.9947 11.2968C16.8908 11.579 16.8516 11.8808 16.88 12.1801C16.9448 12.7038 17.2015 13.185 17.6005 13.5304C17.9995 13.8758 18.5124 14.061 19.04 14.0501H21V15.5001C21.0403 16.1672 20.9385 16.8352 20.7015 17.4601C20.4645 18.085 20.0976 18.6525 19.625 19.125C19.1524 19.5976 18.5849 19.9645 17.9601 20.2016C17.3352 20.4386 16.6671 20.5403 16 20.5001H7.00003C6.33292 20.5403 5.66487 20.4386 5.03999 20.2016C4.41512 19.9645 3.84765 19.5976 3.37508 19.125C2.9025 18.6525 2.53558 18.085 2.29855 17.4601C2.06152 16.8352 1.95977 16.1672 2.00003 15.5001V8.50008C1.91997 7.29371 2.31251 6.10353 3.09456 5.1815C3.87661 4.25947 4.98677 3.67796 6.19003 3.56008C6.45811 3.51947 6.7289 3.49941 7.00003 3.50008H16C16.251 3.49613 16.5018 3.51286 16.75 3.55008C17.9649 3.65574 19.0902 4.23305 19.8846 5.1583C20.679 6.08356 21.0794 7.28316 21 8.50008V9.95008H18.92C18.652 9.94811 18.3863 10.0002 18.1389 10.1033C17.8915 10.2064 17.6674 10.3584 17.48 10.5501V10.5501Z" stroke="#CCCCCC" stroke-width="1.5" stroke-linecap="round" stroke-linejoin="round"/>
</g>
<defs>
<clipPath id="clip0_839_2309">
<rect width="24" height="24" fill="white"/>
</clipPath>
</defs>
</svg>
